<?xml version="1.0" encoding="utf-8"?>
<!-- Generator: Adobe Illustrator 25.2.1, SVG Export Plug-In . SVG Version: 6.00 Build 0)  -->
<svg version="1.1" id="Laag_1" xmlns="http://www.w3.org/2000/svg" xmlns:xlink="http://www.w3.org/1999/xlink" x="0px" y="0px"
	 viewBox="0 0 40 20.3" style="enable-background:new 0 0 40 20.3;" xml:space="preserve">
<g>
	<g id="Group_14" transform="translate(-1520 -54)">
		<g id="Group_14_1_" transform="translate(-1520 -54)">
		</g>
		<g id="Group_14_4_" transform="translate(-1520 -54)">
			<g id="Group_14_5_" transform="translate(-1520 -54)">
				<path id="Rectangle_22_3_" d="M4561.6,162.2h36.7c0.9,0,1.6,0.7,1.6,1.6v0c0,0.9-0.7,1.6-1.6,1.6h-36.7c-0.9,0-1.6-0.7-1.6-1.6
					v0C4560,162.9,4560.7,162.2,4561.6,162.2z"/>
			</g>
		</g>
	</g>
	<g id="Group_14_2_" transform="translate(-1520 -54)">
		<g id="Group_14_7_" transform="translate(-1520 -54)">
		</g>
		<g id="Group_14_3_" transform="translate(-1520 -54)">
			<g id="Group_14_6_" transform="translate(-1520 -54)">
				<path id="Rectangle_22_1_" d="M4561.6,170.6h36.7c0.9,0,1.6,0.7,1.6,1.6l0,0c0,0.9-0.7,1.6-1.6,1.6h-36.7
					c-0.9,0-1.6-0.7-1.6-1.6l0,0C4560,171.3,4560.7,170.6,4561.6,170.6z"/>
			</g>
		</g>
	</g>
	<g id="Group_14_8_" transform="translate(-1520 -54)">
		<g id="Group_14_11_" transform="translate(-1520 -54)">
		</g>
		<g id="Group_14_9_" transform="translate(-1520 -54)">
			<g id="Group_14_10_" transform="translate(-1520 -54)">
				<path id="Rectangle_22_2_" d="M4561.6,178.7h36.7c0.9,0,1.6,0.7,1.6,1.6l0,0c0,0.9-0.7,1.6-1.6,1.6h-36.7
					c-0.9,0-1.6-0.7-1.6-1.6l0,0C4560,179.4,4560.7,178.7,4561.6,178.7z"/>
			</g>
		</g>
	</g>
</g>
</svg>
